<?xml version="1.0" encoding="UTF-8"?>
<!DOCTYPE svg PUBLIC "-//W3C//DTD SVG 1.1//EN" "http://www.w3.org/Graphics/SVG/1.1/DTD/svg11.dtd">
<svg xmlns="http://www.w3.org/2000/svg" version="1.1" width="289px" height="289px" style="shape-rendering:geometricPrecision; text-rendering:geometricPrecision; image-rendering:optimizeQuality; fill-rule:evenodd; clip-rule:evenodd" xmlns:xlink="http://www.w3.org/1999/xlink">
<g><path style="opacity:0.963" fill="#151414" d="M 124.5,-0.5 C 131.5,-0.5 138.5,-0.5 145.5,-0.5C 149.734,1.27556 154.067,3.1089 158.5,5C 161.725,8.19292 165.225,11.0263 169,13.5C 173.645,20.0997 176.311,27.4331 177,35.5C 179.459,38.0699 180.459,41.0699 180,44.5C 176.867,46.751 174.701,49.751 173.5,53.5C 176.19,54.1901 177.857,55.8567 178.5,58.5C 178.138,63.7913 177.972,69.1247 178,74.5C 176.626,78.6094 174.292,81.9427 171,84.5C 170.047,87.4318 169.547,90.4318 169.5,93.5C 171.527,93.3379 173.527,93.5045 175.5,94C 178.308,95.5009 180.808,97.3342 183,99.5C 186.78,97.6095 189.446,98.6095 191,102.5C 192.585,108.438 194.418,114.271 196.5,120C 203.494,124.557 211.161,127.557 219.5,129C 224.833,132 230.167,135 235.5,138C 240.79,145.413 245.957,152.913 251,160.5C 258.349,172.389 261.182,185.222 259.5,199C 261.283,208.017 264.45,216.517 269,224.5C 275.832,244.535 282.332,264.535 288.5,284.5C 288.5,285.833 288.5,287.167 288.5,288.5C 287.5,288.5 286.5,288.5 285.5,288.5C 279.028,268.657 272.528,248.657 266,228.5C 262.329,222.654 260.163,216.32 259.5,209.5C 258.178,209.67 257.011,209.337 256,208.5C 258.882,188.167 253.882,170.167 241,154.5C 239.519,151.044 237.852,147.711 236,144.5C 225.211,135.017 212.711,129.85 198.5,129C 189.657,133.173 183.657,139.84 180.5,149C 175.348,148.774 170.182,148.274 165,147.5C 159.987,148.084 155.154,149.418 150.5,151.5C 158.656,156.115 162.156,163.115 161,172.5C 159.062,173.86 157.396,173.527 156,171.5C 155.71,169.956 155.044,168.623 154,167.5C 153.657,170.324 154.157,172.991 155.5,175.5C 154.658,179.923 152.492,180.59 149,177.5C 147.124,169.246 143.291,162.079 137.5,156C 131.57,154.913 128.07,157.413 127,163.5C 126.805,168.418 126.305,173.251 125.5,178C 123.567,178.783 122.067,178.283 121,176.5C 120.148,172.004 120.648,167.67 122.5,163.5C 122.167,163.167 121.833,162.833 121.5,162.5C 117.726,164.771 114.393,167.604 111.5,171C 105.439,173.273 104.273,171.773 108,166.5C 112.199,161.966 116.699,157.799 121.5,154C 114.8,154.998 108.134,154.665 101.5,153C 95.9107,150.401 90.5773,147.401 85.5,144C 82.4475,140.696 79.7808,137.196 77.5,133.5C 60.4918,141.671 46.3252,153.338 35,168.5C 26.8366,196.811 20.1699,225.478 15,254.5C 13.6493,265.823 12.4826,277.156 11.5,288.5C 10.5,288.5 9.5,288.5 8.5,288.5C 9.94131,270.422 12.108,252.422 15,234.5C 20.1771,212.125 25.5104,189.792 31,167.5C 36.0788,159.086 42.5788,151.919 50.5,146C 58.6924,139.738 67.3591,134.238 76.5,129.5C 75.5214,124.059 76.688,119.059 80,114.5C 85.6922,106.416 93.1922,100.916 102.5,98C 100.804,95.4125 99.8042,92.5792 99.5,89.5C 95.406,90.2954 92.2393,88.962 90,85.5C 87.7311,80.1326 85.8977,74.6326 84.5,69C 85.9052,65.4258 88.2385,62.5924 91.5,60.5C 85.8265,30.9041 96.8265,10.5708 124.5,-0.5 Z"/></g>
<g><path style="opacity:1" fill="#f7f7f7" d="M 171.5,29.5 C 171.672,30.4916 171.338,31.1583 170.5,31.5C 165.042,29.2709 159.708,26.7709 154.5,24C 142.691,20.3739 131.024,20.7072 119.5,25C 111.37,29.2326 103.37,33.7326 95.5,38.5C 95.1667,38 94.8333,37.5 94.5,37C 103.08,10.4169 121.08,-0.249773 148.5,5C 154.826,7.97591 160.659,11.8092 166,16.5C 168.403,20.6347 170.237,24.9681 171.5,29.5 Z"/></g>
<g><path style="opacity:1" fill="#222222" d="M 137.5,18.5 C 137.5,17.5 137.5,16.5 137.5,15.5C 135.265,15.2053 133.265,15.5386 131.5,16.5C 130.275,15.8478 129.608,14.6811 129.5,13C 129.667,11.8333 129.833,10.6667 130,9.5C 132.388,8.88307 134.721,8.54973 137,8.5C 137.772,8.6448 138.439,8.97814 139,9.5C 139.824,12.8823 139.657,16.2156 138.5,19.5C 137.893,19.3764 137.56,19.0431 137.5,18.5 Z"/></g>
<g><path style="opacity:1" fill="#7e7e7e" d="M 131.5,16.5 C 133.265,15.5386 135.265,15.2053 137.5,15.5C 137.5,16.5 137.5,17.5 137.5,18.5C 135.886,16.9254 133.886,16.2587 131.5,16.5 Z"/></g>
<g><path style="opacity:0.999" fill="#d8d8d8" d="M 111.5,32.5 C 116.706,28.4838 122.706,26.3171 129.5,26C 136.535,25.4127 143.535,25.746 150.5,27C 159.297,29.9814 167.463,34.1481 175,39.5C 175.483,40.448 175.649,41.448 175.5,42.5C 172.984,42.2447 170.65,41.4114 168.5,40C 151.119,26.1561 132.119,23.6561 111.5,32.5 Z"/></g>
<g><path style="opacity:0.996" fill="#7b7b7b" d="M 171.5,29.5 C 172.776,30.3864 172.776,31.3864 171.5,32.5C 170.893,32.3764 170.56,32.0431 170.5,31.5C 171.338,31.1583 171.672,30.4916 171.5,29.5 Z"/></g>
<g><path style="opacity:1" fill="#faceb8" d="M 126.5,31.5 C 141.877,29.2772 155.377,33.2772 167,43.5C 173.578,72.367 167.078,97.5336 147.5,119C 143.847,120.273 140.181,121.44 136.5,122.5C 116.184,114.003 103.017,99.0034 97,77.5C 96.0214,66.7112 96.6881,56.0445 99,45.5C 106.6,37.4507 115.767,32.7841 126.5,31.5 Z"/></g>
<g><path style="opacity:1" fill="#e3e3e4" d="M 111.5,32.5 C 107.101,35.3893 103.101,38.8893 99.5,43C 97.3333,43.5 96.5,42.6667 97,40.5C 101.252,36.7406 106.085,34.0739 111.5,32.5 Z"/></g>
<g><path style="opacity:1" fill="#0e0b0a" d="M 147.5,42.5 C 152.537,42.4126 157.537,42.746 162.5,43.5C 162.67,44.8221 162.337,45.9887 161.5,47C 155.472,47.8303 149.472,47.6636 143.5,46.5C 144.549,44.7844 145.882,43.4511 147.5,42.5 Z"/></g>
<g><path style="opacity:1" fill="#120d0c" d="M 116.5,44.5 C 120.678,44.6682 124.345,46.0015 127.5,48.5C 127.291,49.086 126.957,49.586 126.5,50C 120.804,50.2574 115.137,50.7574 109.5,51.5C 108.833,51.1667 108.167,50.8333 107.5,50.5C 110.047,47.5841 113.047,45.5841 116.5,44.5 Z"/></g>
<g><path style="opacity:1" fill="#14100f" d="M 152.5,53.5 C 160.893,53.2784 162.56,56.4451 157.5,63C 149.017,63.6188 147.35,60.4521 152.5,53.5 Z"/></g>
<g><path style="opacity:1" fill="#14100f" d="M 121.5,65.5 C 113.182,65.0131 111.515,61.5131 116.5,55C 122.981,53.6429 125.481,56.1429 124,62.5C 122.955,63.3734 122.122,64.3734 121.5,65.5 Z"/></g>
<g><path style="opacity:0.996" fill="#cfb1a1" d="M 171.5,57.5 C 172.5,57.5 173.5,57.5 174.5,57.5C 174.908,60.5993 173.741,62.9326 171,64.5C 170.297,62.0709 170.463,59.7375 171.5,57.5 Z"/></g>
<g><path style="opacity:1" fill="#14100f" d="M 140.5,56.5 C 141.321,59.6414 141.821,62.9748 142,66.5C 144.096,70.4142 145.93,74.4142 147.5,78.5C 146.362,84.4886 143.029,86.3219 137.5,84C 136.663,82.9887 136.33,81.8221 136.5,80.5C 138.199,80.6204 139.865,80.9537 141.5,81.5C 143.312,81.0485 144.312,79.8818 144.5,78C 139.74,71.4945 138.407,64.3278 140.5,56.5 Z"/></g>
<g><path style="opacity:1" fill="#181311" d="M 121.5,65.5 C 123.315,64.3702 125.315,63.7036 127.5,63.5C 127.67,64.8221 127.337,65.9887 126.5,67C 124.167,68.1667 121.833,69.3333 119.5,70.5C 119.167,70.1667 118.833,69.8333 118.5,69.5C 119.524,68.1482 120.524,66.8149 121.5,65.5 Z"/></g>
<g><path style="opacity:1" fill="#1d1716" d="M 146.5,63.5 C 149.311,63.8257 151.978,64.6591 154.5,66C 156.037,67.1096 156.703,68.6096 156.5,70.5C 153.777,69.6481 151.11,68.4814 148.5,67C 147.177,66.1841 146.511,65.0174 146.5,63.5 Z"/></g>
<g><path style="opacity:0.996" fill="#7c675f" d="M 172.5,65.5 C 174.772,66.7967 175.605,68.7967 175,71.5C 173.878,69.5932 173.045,67.5932 172.5,65.5 Z"/></g>
<g><path style="opacity:0.996" fill="#725d54" d="M 172.5,72.5 C 171.549,73.9187 171.216,75.5853 171.5,77.5C 170.366,75.0336 170.199,72.367 171,69.5C 171.513,70.5266 172.013,71.5266 172.5,72.5 Z"/></g>
<g><path style="opacity:0.986" fill="#eecfbd" d="M 172.5,72.5 C 173.706,74.437 173.373,76.1037 171.5,77.5C 171.216,75.5853 171.549,73.9187 172.5,72.5 Z"/></g>
<g><path style="opacity:1" fill="#e1bdac" d="M 89.5,65.5 C 91.9099,65.9209 93.7432,67.2542 95,69.5C 95.1176,74.8287 95.9509,79.9953 97.5,85C 96.2161,85.6838 95.0495,85.5171 94,84.5C 89.9218,78.6526 88.4218,72.3192 89.5,65.5 Z"/></g>
<g><path style="opacity:1" fill="#110b0b" d="M 91.5,71.5 C 93.12,72.8409 94.12,74.6742 94.5,77C 93.5509,77.6172 92.7175,77.4506 92,76.5C 91.5065,74.8659 91.3398,73.1992 91.5,71.5 Z"/></g>
<g><path style="opacity:1" fill="#1c1715" d="M 125.5,92.5 C 131.274,93.9319 137.108,95.2652 143,96.5C 144.285,96.0496 145.452,95.3829 146.5,94.5C 147.48,97.2334 146.814,99.5667 144.5,101.5C 138.648,98.467 132.481,97.8004 126,99.5C 124.5,99.3333 123.667,98.5 123.5,97C 124.044,95.415 124.711,93.915 125.5,92.5 Z"/></g>
<g><path style="opacity:1" fill="#a393a2" d="M 97.5,106.5 C 99.8333,106.5 102.167,106.5 104.5,106.5C 104.869,109.319 105.202,112.152 105.5,115C 103.26,121.612 102.093,128.446 102,135.5C 99.5325,134.896 97.5325,133.562 96,131.5C 95.2269,128.789 94.0602,126.289 92.5,124C 94.0012,120.969 93.0012,119.136 89.5,118.5C 91.277,115.552 93.777,113.552 97,112.5C 97.4955,110.527 97.6621,108.527 97.5,106.5 Z"/></g>
<g><path style="opacity:1" fill="#a393a2" d="M 168.5,97.5 C 172.955,96.6217 176.289,98.1217 178.5,102C 181.308,102.993 184.141,103.827 187,104.5C 188.858,108.807 190.025,113.307 190.5,118C 189.043,120.698 188.21,123.531 188,126.5C 189.333,124.5 190.667,122.5 192,120.5C 192.589,122.863 194.089,123.863 196.5,123.5C 196.719,124.675 196.386,125.675 195.5,126.5C 187.581,130.586 181.914,136.753 178.5,145C 171.53,144.545 164.53,144.545 157.5,145C 153.099,146.545 148.766,148.045 144.5,149.5C 141.32,148.973 138.32,147.973 135.5,146.5C 132.729,146.756 130.562,148.09 129,150.5C 128.727,148.899 128.227,147.399 127.5,146C 120.719,142.964 113.886,140.131 107,137.5C 106.812,128.459 107.145,119.459 108,110.5C 107.042,105.21 103.876,102.376 98.5,102C 100.218,101.654 101.885,101.154 103.5,100.5C 110.802,110.64 119.802,118.806 130.5,125C 141.351,126.945 149.851,123.445 156,114.5C 156.426,124.89 153.092,133.89 146,141.5C 144.991,143.025 144.491,144.692 144.5,146.5C 146.308,146.509 147.975,146.009 149.5,145C 160.691,136.469 171.857,127.969 183,119.5C 183.086,115.171 182.752,110.837 182,106.5C 177.742,102.271 172.576,99.7711 166.5,99C 167.416,98.7216 168.082,98.2216 168.5,97.5 Z"/></g>
<g><path style="opacity:1" fill="#a393a2" d="M 163.5,102.5 C 168.536,101.388 172.202,103.055 174.5,107.5C 175.736,108.246 177.07,108.579 178.5,108.5C 178.632,111.889 178.799,115.223 179,118.5C 170.357,125.136 161.691,131.802 153,138.5C 155.216,133.51 156.883,128.176 158,122.5C 158.752,119.106 158.585,115.773 157.5,112.5C 159.952,109.394 161.952,106.061 163.5,102.5 Z"/></g>
<g><path style="opacity:1" fill="#a292a1" d="M 91.5,106.5 C 93.3442,107.204 93.8442,108.537 93,110.5C 89.5356,112.129 87.369,114.796 86.5,118.5C 87.6237,123.945 89.7903,128.945 93,133.5C 96.5393,137.238 100.706,140.071 105.5,142C 128.438,148.052 128.104,150.719 104.5,150C 97.4993,146.996 90.9993,143.162 85,138.5C 81.6839,133.228 80.0172,127.561 80,121.5C 82.8996,115.769 86.733,110.769 91.5,106.5 Z"/></g>
<g><path style="opacity:0.998" fill="#a695a5" d="M 285.5,288.5 C 266.833,288.5 248.167,288.5 229.5,288.5C 227.676,278.527 224.176,269.194 219,260.5C 217.989,259.663 216.822,259.33 215.5,259.5C 217.344,245.72 218.677,231.887 219.5,218C 217.737,202.553 217.237,187.053 218,171.5C 221.193,165.808 223.193,159.808 224,153.5C 220.185,160.132 217.185,167.132 215,174.5C 215.228,195.496 215.228,216.496 215,237.5C 212.348,254.424 210.848,271.424 210.5,288.5C 163.833,288.5 117.167,288.5 70.5,288.5C 72.0064,276.619 71.6731,264.786 69.5,253C 71.0656,252.25 71.7323,250.416 71.5,247.5C 69.2011,228.845 67.3678,210.178 66,191.5C 65.8333,196 65.6667,200.5 65.5,205C 65.9389,213.176 66.1056,221.343 66,229.5C 60.8598,214.877 54.8598,200.543 48,186.5C 47.1667,185.5 46.3333,184.5 45.5,183.5C 45.1667,184 44.8333,184.5 44.5,185C 47.3862,190.489 48.7195,196.322 48.5,202.5C 47.1801,210.01 47.1801,217.677 48.5,225.5C 49.1818,224.757 49.8485,224.091 50.5,223.5C 53.7801,228.62 57.2801,233.62 61,238.5C 63.4548,242.531 65.1214,246.864 66,251.5C 67.5202,263.831 67.6868,276.164 66.5,288.5C 48.1667,288.5 29.8333,288.5 11.5,288.5C 12.4826,277.156 13.6493,265.823 15,254.5C 20.1699,225.478 26.8366,196.811 35,168.5C 46.3252,153.338 60.4918,141.671 77.5,133.5C 79.7808,137.196 82.4475,140.696 85.5,144C 90.5773,147.401 95.9107,150.401 101.5,153C 108.134,154.665 114.8,154.998 121.5,154C 116.699,157.799 112.199,161.966 108,166.5C 104.273,171.773 105.439,173.273 111.5,171C 114.393,167.604 117.726,164.771 121.5,162.5C 121.833,162.833 122.167,163.167 122.5,163.5C 120.648,167.67 120.148,172.004 121,176.5C 122.067,178.283 123.567,178.783 125.5,178C 126.305,173.251 126.805,168.418 127,163.5C 128.07,157.413 131.57,154.913 137.5,156C 143.291,162.079 147.124,169.246 149,177.5C 152.492,180.59 154.658,179.923 155.5,175.5C 154.157,172.991 153.657,170.324 154,167.5C 155.044,168.623 155.71,169.956 156,171.5C 157.396,173.527 159.062,173.86 161,172.5C 162.156,163.115 158.656,156.115 150.5,151.5C 155.154,149.418 159.987,148.084 165,147.5C 170.182,148.274 175.348,148.774 180.5,149C 183.657,139.84 189.657,133.173 198.5,129C 212.711,129.85 225.211,135.017 236,144.5C 237.852,147.711 239.519,151.044 241,154.5C 253.882,170.167 258.882,188.167 256,208.5C 257.011,209.337 258.178,209.67 259.5,209.5C 260.163,216.32 262.329,222.654 266,228.5C 272.528,248.657 279.028,268.657 285.5,288.5 Z"/></g>
<g><path style="opacity:1" fill="#e1e1e1" d="M 133.5,148.5 C 134.833,148.5 136.167,148.5 137.5,148.5C 137.5,149.5 137.5,150.5 137.5,151.5C 135.856,151.286 134.356,151.62 133,152.5C 132.805,151.181 132.972,149.847 133.5,148.5 Z"/></g>
<g><path style="opacity:1" fill="#121012" d="M 219.5,150.5 C 220.497,150.47 221.164,150.97 221.5,152C 217.614,161.905 213.947,171.738 210.5,181.5C 209.345,178.554 209.179,175.554 210,172.5C 212.906,165.024 216.073,157.691 219.5,150.5 Z"/></g>
<g><path style="opacity:1" fill="#646565" d="M 139.5,153.5 C 142.073,154.879 143.573,156.879 144,159.5C 141.873,157.886 140.373,155.886 139.5,153.5 Z"/></g>
<g><path style="opacity:0.999" fill="#171416" d="M 229.5,288.5 C 228.167,288.5 226.833,288.5 225.5,288.5C 224.304,279.213 221.637,270.38 217.5,262C 216.552,261.517 215.552,261.351 214.5,261.5C 213.617,270.467 213.284,279.467 213.5,288.5C 212.5,288.5 211.5,288.5 210.5,288.5C 210.848,271.424 212.348,254.424 215,237.5C 215.228,216.496 215.228,195.496 215,174.5C 217.185,167.132 220.185,160.132 224,153.5C 223.193,159.808 221.193,165.808 218,171.5C 217.237,187.053 217.737,202.553 219.5,218C 218.677,231.887 217.344,245.72 215.5,259.5C 216.822,259.33 217.989,259.663 219,260.5C 224.176,269.194 227.676,278.527 229.5,288.5 Z"/></g>
<g><path style="opacity:1" fill="#dbdbdb" d="M 143.5,153.5 C 152.439,154.622 157.273,159.955 158,169.5C 154.722,162.724 149.889,157.39 143.5,153.5 Z"/></g>
<g><path style="opacity:1" fill="#cecfcf" d="M 124.5,154.5 C 126.842,154.775 126.842,155.608 124.5,157C 119.61,159.954 115.277,163.621 111.5,168C 110.833,168.667 110.167,168.667 109.5,168C 111.598,165.146 113.931,162.479 116.5,160C 119.407,158.391 122.073,156.558 124.5,154.5 Z"/></g>
<g><path style="opacity:1" fill="#7a7a7a" d="M 125.5,159.5 C 126.043,159.56 126.376,159.893 126.5,160.5C 125.007,165.356 124.007,170.356 123.5,175.5C 122.217,169.918 122.883,164.584 125.5,159.5 Z"/></g>
<g><path style="opacity:1" fill="#8d8d8c" d="M 147.5,164.5 C 150.268,167.634 151.768,171.301 152,175.5C 149.819,172.125 148.319,168.458 147.5,164.5 Z"/></g>
<g><path style="opacity:0.998" fill="#110f11" d="M 70.5,288.5 C 69.1667,288.5 67.8333,288.5 66.5,288.5C 67.6868,276.164 67.5202,263.831 66,251.5C 65.1214,246.864 63.4548,242.531 61,238.5C 57.2801,233.62 53.7801,228.62 50.5,223.5C 50.5,223.167 50.5,222.833 50.5,222.5C 54.9907,225.765 58.824,229.765 62,234.5C 62.4675,230.025 61.8008,225.691 60,221.5C 57.6384,214.899 54.805,208.566 51.5,202.5C 51.2172,201.711 50.7172,201.044 50,200.5C 49.5007,205.489 49.3341,210.489 49.5,215.5C 49.5,217.5 49.5,219.5 49.5,221.5C 48.5005,215.927 48.1672,209.594 48.5,202.5C 48.7195,196.322 47.3862,190.489 44.5,185C 44.8333,184.5 45.1667,184 45.5,183.5C 46.3333,184.5 47.1667,185.5 48,186.5C 54.8598,200.543 60.8598,214.877 66,229.5C 66.1056,221.343 65.9389,213.176 65.5,205C 65.6667,200.5 65.8333,196 66,191.5C 67.3678,210.178 69.2011,228.845 71.5,247.5C 71.7323,250.416 71.0656,252.25 69.5,253C 71.6731,264.786 72.0064,276.619 70.5,288.5 Z"/></g>
<g><path style="opacity:1" fill="#1a3f78" d="M 104.5,185.5 C 106.665,185.116 108.332,185.783 109.5,187.5C 106.388,192.948 105.055,198.948 105.5,205.5C 107.199,205.34 108.866,205.506 110.5,206C 111.833,207 111.833,208 110.5,209C 105.096,209.772 99.7625,209.439 94.5,208C 90.765,206.2 89.0983,203.2 89.5,199C 91.4718,191.197 96.4718,186.697 104.5,185.5 Z"/></g>
<g><path style="opacity:1" fill="#d70936" d="M 97.5,191.5 C 98.5,191.5 99.5,191.5 100.5,191.5C 100.5,195.833 100.5,200.167 100.5,204.5C 94.1803,204.68 91.6803,201.68 93,195.5C 94.3968,193.93 95.8968,192.596 97.5,191.5 Z"/></g>
<g><path style="opacity:1" fill="#131012" d="M 247.5,199.5 C 248.5,199.5 249.5,199.5 250.5,199.5C 248.053,211.011 244.886,222.345 241,233.5C 238.584,238.001 235.917,242.334 233,246.5C 230.603,249.4 227.77,251.733 224.5,253.5C 229.344,247.253 233.844,240.253 238,232.5C 240.875,221.379 244.042,210.379 247.5,199.5 Z"/></g>
<g><path style="opacity:1" fill="#191719" d="M 237.5,200.5 C 238.559,202.726 238.392,205.059 237,207.5C 234.667,211.5 232.333,215.5 230,219.5C 231.396,212.827 233.896,206.493 237.5,200.5 Z"/></g>
<g><path style="opacity:1" fill="#4b444a" d="M 51.5,202.5 C 50.8333,206.833 50.1667,211.167 49.5,215.5C 49.3341,210.489 49.5007,205.489 50,200.5C 50.7172,201.044 51.2172,201.711 51.5,202.5 Z"/></g>
<g><path style="opacity:1" fill="#5b5259" d="M 48.5,202.5 C 48.1672,209.594 48.5005,215.927 49.5,221.5C 50.1667,221.5 50.5,221.833 50.5,222.5C 50.5,222.833 50.5,223.167 50.5,223.5C 49.8485,224.091 49.1818,224.757 48.5,225.5C 47.1801,217.677 47.1801,210.01 48.5,202.5 Z"/></g>
<g><path style="opacity:1" fill="#a292a1" d="M 51.5,202.5 C 54.805,208.566 57.6384,214.899 60,221.5C 61.8008,225.691 62.4675,230.025 62,234.5C 58.824,229.765 54.9907,225.765 50.5,222.5C 50.5,221.833 50.1667,221.5 49.5,221.5C 49.5,219.5 49.5,217.5 49.5,215.5C 50.1667,211.167 50.8333,206.833 51.5,202.5 Z"/></g>
<g><path style="opacity:1" fill="#564e53" d="M 66.5,238.5 C 68.0881,240.527 68.5881,242.861 68,245.5C 66.7978,243.323 66.2978,240.989 66.5,238.5 Z"/></g>
<g><path style="opacity:1" fill="#0d0b0d" d="M 256.5,268.5 C 250.974,268.821 245.64,268.488 240.5,267.5C 248.012,267.1 255.346,265.6 262.5,263C 265.463,261.039 268.129,258.706 270.5,256C 271.448,255.517 272.448,255.351 273.5,255.5C 270.487,263.167 264.82,267.5 256.5,268.5 Z"/></g>
<g><path style="opacity:0.98" fill="#a191a0" d="M 225.5,288.5 C 221.5,288.5 217.5,288.5 213.5,288.5C 213.284,279.467 213.617,270.467 214.5,261.5C 215.552,261.351 216.552,261.517 217.5,262C 221.637,270.38 224.304,279.213 225.5,288.5 Z"/></g>
<g><path style="opacity:1" fill="#5e545c" d="M 240.5,267.5 C 245.64,268.488 250.974,268.821 256.5,268.5C 250.987,269.816 245.32,269.816 239.5,268.5C 239.624,267.893 239.957,267.56 240.5,267.5 Z"/></g>
<g><path style="opacity:1" fill="#121012" d="M 253.5,272.5 C 257.884,272.174 262.217,272.508 266.5,273.5C 266.291,274.086 265.957,274.586 265.5,275C 252.618,274.846 241.451,279.013 232,287.5C 231.333,286.833 231.333,286.167 232,285.5C 237.928,278.96 245.094,274.626 253.5,272.5 Z"/></g>
</svg>
